<svg xmlns="http://www.w3.org/2000/svg">
  <symbol id="setting" viewBox="0 0 14 14">
    <g>
      <path d="M11.6438 8.55473L10.7483 7.7891C10.7907 7.52934 10.8126 7.2641 10.8126 6.99887C10.8126 6.73363 10.7907 6.4684 10.7483 6.20863L11.6438 5.44301C11.7114 5.38519 11.7597 5.30817 11.7824 5.22221C11.8051 5.13624 11.8011 5.0454 11.771 4.96176L11.7587 4.92621C11.5121 4.23719 11.143 3.59845 10.669 3.04086L10.6444 3.01215C10.5869 2.94454 10.5103 2.89595 10.4246 2.87276C10.339 2.84958 10.2483 2.85289 10.1645 2.88227L9.05301 3.27738C8.64285 2.94106 8.18485 2.67582 7.68992 2.48988L7.47528 1.32777C7.45908 1.24033 7.41667 1.15989 7.35366 1.09713C7.29066 1.03437 7.21005 0.992262 7.12254 0.976407L7.08563 0.969571C6.37332 0.841055 5.6241 0.841055 4.9118 0.969571L4.87489 0.976407C4.78738 0.992262 4.70677 1.03437 4.64377 1.09713C4.58076 1.15989 4.53835 1.24033 4.52215 1.32777L4.30614 2.49535C3.81516 2.68133 3.35795 2.94642 2.95262 3.28012L1.83289 2.88227C1.74918 2.85266 1.65843 2.84922 1.57271 2.87242C1.487 2.89562 1.41037 2.94436 1.35301 3.01215L1.3284 3.04086C0.855009 3.59884 0.485909 4.23747 0.238754 4.92621L0.226449 4.96176C0.164926 5.13266 0.215512 5.32406 0.353598 5.44301L1.26004 6.21684C1.21766 6.47387 1.19715 6.73637 1.19715 6.9975C1.19715 7.26 1.21766 7.5225 1.26004 7.77817L0.353598 8.55199C0.286053 8.60982 0.23771 8.68683 0.214998 8.7728C0.192285 8.85876 0.19628 8.9496 0.226449 9.03324L0.238754 9.06879C0.486215 9.75785 0.852621 10.3936 1.3284 10.9541L1.35301 10.9829C1.41051 11.0505 1.48714 11.0991 1.5728 11.1222C1.65847 11.1454 1.74915 11.1421 1.83289 11.1127L2.95262 10.7149C3.36004 11.0498 3.81532 11.3151 4.30614 11.4997L4.52215 12.6672C4.53835 12.7547 4.58076 12.8351 4.64377 12.8979C4.70677 12.9606 4.78738 13.0027 4.87489 13.0186L4.9118 13.0254C5.63065 13.1546 6.36678 13.1546 7.08563 13.0254L7.12254 13.0186C7.21005 13.0027 7.29066 12.9606 7.35366 12.8979C7.41667 12.8351 7.45908 12.7547 7.47528 12.6672L7.68992 11.5051C8.18465 11.3197 8.64524 11.0536 9.05301 10.7176L10.1645 11.1127C10.2483 11.1423 10.339 11.1458 10.4247 11.1226C10.5104 11.0994 10.5871 11.0506 10.6444 10.9829L10.669 10.9541C11.1448 10.3922 11.5112 9.75785 11.7587 9.06879L11.771 9.03324C11.8325 8.86508 11.7819 8.67367 11.6438 8.55473ZM9.77762 6.36996C9.8118 6.57641 9.82957 6.78832 9.82957 7.00024C9.82957 7.21215 9.8118 7.42406 9.77762 7.63051L9.68739 8.17875L10.7087 9.05238C10.5539 9.40907 10.3584 9.74672 10.1263 10.0586L8.8575 9.60883L8.42821 9.96156C8.10145 10.2295 7.73778 10.4401 7.34403 10.5877L6.82313 10.7832L6.5784 12.1094C6.19227 12.1532 5.80243 12.1532 5.41629 12.1094L5.17157 10.7805L4.65477 10.5823C4.26512 10.4346 3.90282 10.2241 3.57879 9.95746L3.1495 9.60336L1.87254 10.0573C1.64012 9.74418 1.44598 9.40649 1.29012 9.05102L2.32235 8.16918L2.23348 7.62231C2.20067 7.41859 2.18289 7.20805 2.18289 7.00024C2.18289 6.79106 2.1993 6.58188 2.23348 6.37816L2.32235 5.83129L1.29012 4.94945C1.44461 4.59262 1.64012 4.25629 1.87254 3.9432L3.1495 4.39711L3.57879 4.04301C3.90282 3.77641 4.26512 3.56586 4.65477 3.4182L5.17293 3.2227L5.41766 1.89379C5.80184 1.85004 6.19422 1.85004 6.57977 1.89379L6.8245 3.21996L7.34539 3.41547C7.73778 3.56313 8.10282 3.77367 8.42957 4.04164L8.85887 4.39438L10.1276 3.94457C10.36 4.25766 10.5542 4.59535 10.71 4.95082L9.68875 5.82445L9.77762 6.36996ZM6.00008 4.45727C4.67118 4.45727 3.59383 5.53461 3.59383 6.86352C3.59383 8.19242 4.67118 9.26977 6.00008 9.26977C7.32899 9.26977 8.40633 8.19242 8.40633 6.86352C8.40633 5.53461 7.32899 4.45727 6.00008 4.45727ZM7.08289 7.94633C6.94087 8.08876 6.77209 8.2017 6.58626 8.27866C6.40043 8.35562 6.20122 8.39508 6.00008 8.39477C5.59129 8.39477 5.20711 8.23481 4.91727 7.94633C4.77484 7.80431 4.6619 7.63553 4.58494 7.4497C4.50798 7.26387 4.46852 7.06465 4.46883 6.86352C4.46883 6.45473 4.62879 6.07055 4.91727 5.7807C5.20711 5.49086 5.59129 5.33227 6.00008 5.33227C6.40887 5.33227 6.79305 5.49086 7.08289 5.7807C7.22532 5.92272 7.33827 6.09151 7.41523 6.27734C7.49219 6.46317 7.53164 6.66238 7.53133 6.86352C7.53133 7.27231 7.37137 7.65649 7.08289 7.94633Z" fill="#8C8C8C"/>
    </g>
  </symbol>
  <symbol id="like-active" viewBox="0 0 16 16">
     <g>
      <path d="M0.75 7.25005V12.9375C0.75 13.2141 0.973437 13.4375 1.25 13.4375H2.26562V6.75005H1.25C0.973437 6.75005 0.75 6.97349 0.75 7.25005ZM12.8422 7.33911C13.1047 6.99224 13.25 6.56724 13.25 6.12505C13.25 5.42349 12.8578 4.75786 12.2266 4.39067C12.0641 4.29535 11.879 4.24519 11.6906 4.24536H7.94219L8.03594 2.32505C8.05937 1.86099 7.89531 1.42036 7.575 1.08442C7.4187 0.918679 7.23 0.786828 7.02061 0.697053C6.81123 0.607279 6.58563 0.561497 6.35781 0.562548C5.54531 0.562548 4.82656 1.10942 4.61094 1.89224L3.27031 6.74849L3.26562 13.436H10.6422C10.7875 13.436 10.9266 13.4079 11.0562 13.3516C11.8 13.0344 12.2797 12.3079 12.2797 11.5016C12.2797 11.3047 12.2516 11.111 12.1953 10.9235C12.4578 10.5766 12.6031 10.1516 12.6031 9.70942C12.6031 9.51255 12.575 9.3188 12.5188 9.1313C12.7812 8.78442 12.9266 8.35942 12.9266 7.91724C12.9266 7.72036 12.8984 7.52661 12.8422 7.33911ZM11.8188 6.79692L11.4766 7.0938L11.6953 7.49224C11.7669 7.62297 11.804 7.76976 11.8031 7.9188C11.8031 8.17661 11.6922 8.42192 11.4969 8.59067L11.1547 8.88755L11.3719 9.28442C11.4434 9.41516 11.4805 9.56195 11.4797 9.71099C11.4797 9.9688 11.3687 10.2141 11.1734 10.3829L10.8313 10.6797L11.0484 11.0766C11.12 11.2073 11.1571 11.3541 11.1562 11.5032C11.1562 11.8532 10.95 12.1688 10.6313 12.3125H4.39062V6.9188C4.68125 5.8688 5.11562 4.2938 5.69531 2.19224C5.73581 2.04809 5.82198 1.92098 5.94087 1.82998C6.05977 1.73898 6.20497 1.689 6.35469 1.68755C6.47188 1.68599 6.58906 1.72192 6.68437 1.79224C6.83906 1.90786 6.92188 2.08286 6.9125 2.2688L6.7625 5.3688H11.675C11.9531 5.53911 12.125 5.82661 12.125 6.12505C12.125 6.38286 12.0141 6.62817 11.8188 6.79692Z" fill="#1890FF"/>
    </g>
  </symbol>
  <symbol id="like" viewBox="0 0 24 24">
     <g>
      <path d="M18.7633 10.5094C19.157 9.98909 19.375 9.35159 19.375 8.6883C19.375 7.63596 18.7867 6.63987 17.8398 6.0844C17.5961 5.94142 17.3185 5.86617 17.0359 5.86643H11.4156L11.5563 2.98596C11.5891 2.28987 11.343 1.62893 10.8648 1.12502C10.6302 0.876652 10.3471 0.679038 10.0331 0.544395C9.71905 0.409752 9.38074 0.34094 9.03906 0.342211C7.82031 0.342211 6.74219 1.16252 6.41875 2.33674L4.40547 9.62581H1.375C0.960156 9.62581 0.625 9.96096 0.625 10.3758V18.9071C0.625 19.3219 0.960156 19.6571 1.375 19.6571H15.468C15.6836 19.6571 15.8945 19.6149 16.0891 19.5305C17.2047 19.0547 17.9242 17.9649 17.9242 16.7555C17.9242 16.4602 17.882 16.1696 17.7977 15.8883C18.1914 15.368 18.4094 14.7305 18.4094 14.0672C18.4094 13.7719 18.3672 13.4813 18.2828 13.2C18.6766 12.6797 18.8945 12.0422 18.8945 11.3789C18.8898 11.0836 18.8477 10.7906 18.7633 10.5094ZM2.3125 17.9696V11.3133H4.21094V17.9696H2.3125ZM17.2281 9.69612L16.7148 10.1414L17.0406 10.7367C17.148 10.9328 17.2036 11.153 17.2023 11.3766C17.2023 11.7633 17.0336 12.1313 16.743 12.3844L16.2297 12.8297L16.5555 13.425C16.6628 13.6211 16.7185 13.8413 16.7172 14.0649C16.7172 14.4516 16.5484 14.8196 16.2578 15.0727L15.7445 15.518L16.0703 16.1133C16.1776 16.3094 16.2333 16.5296 16.232 16.7531C16.232 17.2781 15.9227 17.7516 15.4445 17.9672H5.71094V11.2383L8.04297 2.78909C8.1031 2.57252 8.23219 2.38147 8.41066 2.24486C8.58914 2.10825 8.80728 2.03354 9.03203 2.03205C9.21016 2.03205 9.38594 2.08362 9.52656 2.18909C9.75859 2.36252 9.88281 2.62502 9.86875 2.90393L9.64375 7.55393H17.0125C17.4297 7.8094 17.6875 8.24065 17.6875 8.6883C17.6875 9.07502 17.5188 9.44065 17.2281 9.69612Z" fill="#595959"/>
    </g>
  </symbol>
  <symbol id="share" viewBox="0 0 24 24">
  <g>
    <path d="M14.625 13.5625C13.957 13.5625 13.3406 13.7969 12.8578 14.1883L8.00156 10.675C8.08288 10.2287 8.08288 9.77133 8.00156 9.325L12.8578 5.81172C13.3406 6.20312 13.957 6.4375 14.625 6.4375C16.1766 6.4375 17.4375 5.17656 17.4375 3.625C17.4375 2.07344 16.1766 0.8125 14.625 0.8125C13.0734 0.8125 11.8125 2.07344 11.8125 3.625C11.8125 3.89687 11.85 4.15703 11.9227 4.40547L7.31016 7.74531C6.62578 6.83828 5.53828 6.25 4.3125 6.25C2.24062 6.25 0.5625 7.92812 0.5625 10C0.5625 12.0719 2.24062 13.75 4.3125 13.75C5.53828 13.75 6.62578 13.1617 7.31016 12.2547L11.9227 15.5945C11.85 15.843 11.8125 16.1055 11.8125 16.375C11.8125 17.9266 13.0734 19.1875 14.625 19.1875C16.1766 19.1875 17.4375 17.9266 17.4375 16.375C17.4375 14.8234 16.1766 13.5625 14.625 13.5625ZM14.625 2.40625C15.2977 2.40625 15.8438 2.95234 15.8438 3.625C15.8438 4.29766 15.2977 4.84375 14.625 4.84375C13.9523 4.84375 13.4062 4.29766 13.4062 3.625C13.4062 2.95234 13.9523 2.40625 14.625 2.40625ZM4.3125 12.0625C3.17578 12.0625 2.25 11.1367 2.25 10C2.25 8.86328 3.17578 7.9375 4.3125 7.9375C5.44922 7.9375 6.375 8.86328 6.375 10C6.375 11.1367 5.44922 12.0625 4.3125 12.0625ZM14.625 17.5938C13.9523 17.5938 13.4062 17.0477 13.4062 16.375C13.4062 15.7023 13.9523 15.1562 14.625 15.1562C15.2977 15.1562 15.8438 15.7023 15.8438 16.375C15.8438 17.0477 15.2977 17.5938 14.625 17.5938Z"/>
  </g>  
  </symbol>

    <symbol id="chat" viewBox="0 0 24 24">
  <g>
    <path d="M9.87518 11C9.87518 11.2984 9.9937 11.5845 10.2047 11.7955C10.4157 12.0065 10.7018 12.125 11.0002 12.125C11.2985 12.125 11.5847 12.0065 11.7957 11.7955C12.0067 11.5845 12.1252 11.2984 12.1252 11C12.1252 10.7016 12.0067 10.4155 11.7957 10.2045C11.5847 9.99353 11.2985 9.875 11.0002 9.875C10.7018 9.875 10.4157 9.99353 10.2047 10.2045C9.9937 10.4155 9.87518 10.7016 9.87518 11ZM14.5627 11C14.5627 11.2984 14.6812 11.5845 14.8922 11.7955C15.1032 12.0065 15.3893 12.125 15.6877 12.125C15.986 12.125 16.2722 12.0065 16.4832 11.7955C16.6942 11.5845 16.8127 11.2984 16.8127 11C16.8127 10.7016 16.6942 10.4155 16.4832 10.2045C16.2722 9.99353 15.986 9.875 15.6877 9.875C15.3893 9.875 15.1032 9.99353 14.8922 10.2045C14.6812 10.4155 14.5627 10.7016 14.5627 11ZM5.18768 11C5.18768 11.2984 5.30621 11.5845 5.51718 11.7955C5.72816 12.0065 6.01431 12.125 6.31268 12.125C6.61105 12.125 6.8972 12.0065 7.10817 11.7955C7.31915 11.5845 7.43768 11.2984 7.43768 11C7.43768 10.7016 7.31915 10.4155 7.10817 10.2045C6.8972 9.99353 6.61105 9.875 6.31268 9.875C6.01431 9.875 5.72816 9.99353 5.51718 10.2045C5.30621 10.4155 5.18768 10.7016 5.18768 11ZM20.6846 6.93125C20.1549 5.67266 19.3955 4.54297 18.4275 3.57266C17.4663 2.60796 16.3253 1.84114 15.0689 1.31563C13.7799 0.774219 12.4111 0.5 11.0002 0.5H10.9533C9.53299 0.507031 8.15721 0.788281 6.86346 1.34141C5.61789 1.87232 4.48752 2.64049 3.53534 3.60312C2.57674 4.57109 1.8244 5.69609 1.30409 6.95C0.765023 8.24844 0.493147 9.62891 0.500179 11.0492C0.508132 12.6769 0.893206 14.2806 1.62518 15.7344V19.2969C1.62518 19.5828 1.73877 19.857 1.94095 20.0592C2.14314 20.2614 2.41737 20.375 2.7033 20.375H6.26815C7.72196 21.107 9.32564 21.492 10.9533 21.5H11.0025C12.4064 21.5 13.7681 21.2281 15.0502 20.6961C16.3002 20.1768 17.437 19.419 18.3971 18.4648C19.365 17.5063 20.1267 16.3859 20.6588 15.1367C21.2119 13.843 21.4931 12.4672 21.5002 11.0469C21.5072 9.61953 21.2306 8.23438 20.6846 6.93125ZM17.1431 17.1969C15.5002 18.8234 13.3205 19.7188 11.0002 19.7188H10.9603C9.54705 19.7117 8.14315 19.3602 6.9033 18.6992L6.70643 18.5938H3.40643V15.2938L3.30096 15.0969C2.64002 13.857 2.28846 12.4531 2.28143 11.0398C2.27205 8.70312 3.16502 6.50937 4.8033 4.85703C6.43924 3.20469 8.62596 2.29062 10.9627 2.28125H11.0025C12.1744 2.28125 13.3111 2.50859 14.3822 2.95859C15.4275 3.39687 16.365 4.02734 17.1713 4.83359C17.9752 5.6375 18.608 6.57734 19.0463 7.62266C19.501 8.70547 19.7283 9.85391 19.7236 11.0398C19.7096 13.3742 18.7931 15.5609 17.1431 17.1969Z" fill="#595959"/>
  </g>  
  </symbol>

  <symbol id="dots" viewBox="0 0 24 24">
  <g>
    <path d="M0.125 1.97656C0.125 2.14892 0.158949 2.3196 0.224908 2.47884C0.290867 2.63807 0.387546 2.78276 0.509422 2.90464C0.631299 3.02652 0.775988 3.12319 0.935228 3.18915C1.09447 3.25511 1.26514 3.28906 1.4375 3.28906C1.60986 3.28906 1.78053 3.25511 1.93977 3.18915C2.09901 3.12319 2.2437 3.02652 2.36558 2.90464C2.48745 2.78276 2.58413 2.63807 2.65009 2.47884C2.71605 2.3196 2.75 2.14892 2.75 1.97656C2.75 1.8042 2.71605 1.63353 2.65009 1.47429C2.58413 1.31505 2.48745 1.17036 2.36558 1.04848C2.2437 0.926608 2.09901 0.82993 1.93977 0.763971C1.78053 0.698012 1.60986 0.664063 1.4375 0.664063C1.26514 0.664063 1.09447 0.698012 0.935228 0.763971C0.775988 0.82993 0.631299 0.926608 0.509422 1.04848C0.387546 1.17036 0.290867 1.31505 0.224908 1.47429C0.158949 1.63353 0.125 1.8042 0.125 1.97656ZM6.6875 1.97656C6.6875 2.32466 6.82578 2.6585 7.07192 2.90464C7.31806 3.15078 7.6519 3.28906 8 3.28906C8.3481 3.28906 8.68194 3.15078 8.92808 2.90464C9.17422 2.6585 9.3125 2.32466 9.3125 1.97656C9.3125 1.62847 9.17422 1.29463 8.92808 1.04848C8.68194 0.802343 8.3481 0.664062 8 0.664063C7.6519 0.664062 7.31806 0.802343 7.07192 1.04848C6.82578 1.29463 6.6875 1.62847 6.6875 1.97656ZM13.25 1.97656C13.25 2.32466 13.3883 2.6585 13.6344 2.90464C13.8806 3.15078 14.2144 3.28906 14.5625 3.28906C14.9106 3.28906 15.2444 3.15078 15.4906 2.90464C15.7367 2.6585 15.875 2.32466 15.875 1.97656C15.875 1.62847 15.7367 1.29463 15.4906 1.04848C15.2444 0.802343 14.9106 0.664062 14.5625 0.664063C14.2144 0.664062 13.8806 0.802343 13.6344 1.04848C13.3883 1.29463 13.25 1.62847 13.25 1.97656Z" fill="#595959"/>
  </g>
  </symbol>
  <symbol id="clock-circle" viewBox="0 0 16 16">
  <g>
    <path d="M8 1C4.13438 1 1 4.13438 1 8C1 11.8656 4.13438 15 8 15C11.8656 15 15 11.8656 15 8C15 4.13438 11.8656 1 8 1ZM8 13.8125C4.79063 13.8125 2.1875 11.2094 2.1875 8C2.1875 4.79063 4.79063 2.1875 8 2.1875C11.2094 2.1875 13.8125 4.79063 13.8125 8C13.8125 11.2094 11.2094 13.8125 8 13.8125Z" />
    <path d="M10.7297 9.97811L8.50156 8.36718V4.5C8.50156 4.43125 8.44531 4.375 8.37656 4.375H7.625C7.55625 4.375 7.5 4.43125 7.5 4.5V8.80311C7.5 8.84374 7.51875 8.88124 7.55156 8.90467L10.1359 10.789C10.1922 10.8297 10.2703 10.8172 10.3109 10.7625L10.7578 10.1531C10.7984 10.0953 10.7859 10.0172 10.7297 9.97811Z" />
  </g>  
  </symbol>
</svg>
